# xmcd
#
# Track frame offsets:
#	150
#	5005
#	22123
#	40368
#	53300
#	70730
#	88440
#	108711
#	129378
#	133540
#	151895
#	155603
#	179480
#	198374
#	218147
#	235831
#	253284
#	271812
#
# Disc length: 3860 seconds
#
# Revision: 1
# Processed by: cddbd v1.4b41PL1 Copyright (c) Steve Scherf et al.
# Submitted via: audiograbber 1.80
#
DISCID=020f1212
DTITLE=Keith Sweat - Didn't See Me Coming
DYEAR=1900
DGENRE=
TTITLE0=Intro
TTITLE1=Things (feat. Busta Rhymes and Rah Digga)
TTITLE2=Whatcha Like
TTITLE3=Satisfy You
TTITLE4=I Put U On
TTITLE5=He Say She Say ( feat. T-Boz)
TTITLE6=Real Man
TTITLE7=Kiss You
TTITLE8=I'll Trade (A Million Bucks) Interlude
TTITLE9=Don't Have Me (feat Dave Hollister)
TTITLE10=Tonite
TTITLE11=Caught Up
TTITLE12=Games
TTITLE13=I'll Trade (A Million Bucks) feat. Lebo
TTITLE14=Only Wanna Please You
TTITLE15=Why You Treat Me So Cold
TTITLE16=Bonus Track: I'll Trade (A Million Bucks)
TTITLE17=Bonus Track: I'll Trade (A Million Bucks)
EXTD=
EXTT0=
EXTT1=
EXTT2=
EXTT3=
EXTT4=
EXTT5=
EXTT6=
EXTT7=
EXTT8=
EXTT9=
EXTT10=
EXTT11=
EXTT12=
EXTT13=
EXTT14=
EXTT15=
EXTT16=
EXTT17=
PLAYORDER=
